<?xml version="1.0" standalone="no"?>
<!DOCTYPE svg PUBLIC "-//W3C//DTD SVG 20010904//EN"
 "http://www.w3.org/TR/2001/REC-SVG-20010904/DTD/svg10.dtd">
<svg version="1.0" xmlns="http://www.w3.org/2000/svg"
 width="142.000000pt" height="183.000000pt" viewBox="0 0 142.000000 183.000000"
 preserveAspectRatio="xMidYMid meet">

<g transform="translate(0.000000,183.000000) scale(0.100000,-0.100000)"
fill="#000000" stroke="none">
<path d="M164 1456 c-64 -16 -117 -48 -132 -81 -27 -59 -5 -133 48 -160 16 -8
35 -25 42 -38 15 -25 16 -214 4 -441 l-8 -139 -49 -47 c-41 -39 -49 -54 -49
-83 0 -93 55 -129 206 -135 134 -6 208 10 251 53 23 23 33 42 33 64 0 43 16
39 47 -13 28 -47 57 -66 99 -66 40 0 62 17 89 70 14 28 29 50 34 50 5 0 11
-18 14 -41 12 -92 70 -114 307 -114 158 0 179 2 222 22 92 42 105 135 31 215
-34 36 -46 153 -41 398 4 197 5 198 63 279 50 69 26 158 -53 194 -41 19 -65
22 -177 22 -198 0 -215 -13 -333 -243 -40 -78 -79 -142 -86 -142 -7 0 -51 70
-97 156 -92 171 -121 208 -177 224 -50 13 -225 11 -288 -4z m297 -57 c14 -10
67 -95 128 -205 56 -104 107 -193 111 -198 5 -5 20 -6 33 -2 20 5 42 39 113
177 95 184 125 220 196 240 57 15 216 6 257 -15 58 -31 66 -78 21 -129 -16
-19 -35 -47 -41 -63 -17 -39 -24 -401 -11 -532 10 -98 13 -105 46 -143 38 -41
43 -58 25 -91 -19 -35 -76 -51 -204 -56 -248 -9 -351 45 -260 138 44 45 54 84
55 207 0 104 -5 123 -31 123 -26 0 -40 -24 -130 -226 -43 -97 -84 -183 -90
-191 -22 -26 -53 -10 -81 42 -15 28 -60 123 -99 212 -78 177 -93 199 -115 168
-17 -22 -20 -275 -4 -305 5 -10 25 -27 45 -39 66 -39 34 -101 -64 -122 -71
-15 -207 -7 -248 14 -57 30 -56 77 2 115 20 12 40 33 45 46 13 35 33 489 25
565 -9 81 -16 95 -65 126 -87 55 -52 129 73 155 69 15 239 7 268 -11z m3 -768
c32 -72 34 -96 7 -81 -40 21 -51 41 -51 91 0 27 4 49 9 49 4 0 20 -26 35 -59z
m416 36 c0 -35 -24 -89 -46 -103 -13 -9 -27 -14 -30 -11 -9 9 55 139 66 132 5
-3 10 -12 10 -18z"/>
</g>
</svg>
