<?xml version="1.0" standalone="no"?>
<!DOCTYPE svg PUBLIC "-//W3C//DTD SVG 20010904//EN"
 "http://www.w3.org/TR/2001/REC-SVG-20010904/DTD/svg10.dtd">
<svg version="1.0" xmlns="http://www.w3.org/2000/svg"
 width="219.000000pt" height="183.000000pt" viewBox="0 0 219.000000 183.000000"
 preserveAspectRatio="xMidYMid meet">

<g transform="translate(0.000000,183.000000) scale(0.100000,-0.100000)"
fill="#000000" stroke="none">
<path d="M493 1460 c-157 -33 -323 -160 -400 -306 -57 -107 -77 -247 -53 -375
34 -184 195 -356 400 -425 43 -15 83 -19 180 -19 121 1 129 2 250 44 143 50
168 61 194 90 27 30 33 27 39 -20 6 -47 28 -75 77 -96 48 -21 315 -29 434 -14
139 19 186 53 186 134 0 50 -21 80 -75 107 -56 29 -68 56 -63 143 3 44 6 52
23 52 16 0 23 -11 32 -50 15 -62 50 -95 99 -95 58 0 93 25 122 88 25 54 27 66
27 205 0 144 1 148 20 141 47 -15 103 -15 134 0 38 20 71 82 71 133 0 76 -61
222 -102 244 -15 8 -144 12 -447 13 -479 1 -485 0 -518 -68 -18 -39 -33 -45
-54 -20 -23 28 -67 44 -122 44 -32 0 -83 10 -128 26 -81 29 -246 41 -326 24z
m321 -80 c67 -24 97 -30 126 -25 57 10 93 -13 127 -82 35 -73 45 -191 19 -242
-20 -38 -70 -71 -108 -71 -50 0 -79 23 -140 112 -33 49 -72 97 -87 107 -67 47
-172 53 -228 13 -41 -29 -65 -82 -71 -158 -13 -168 88 -340 224 -380 100 -29
188 -10 317 68 l38 23 26 -29 c22 -26 25 -36 20 -77 -7 -55 -35 -115 -69 -145
-12 -11 -84 -40 -158 -65 -124 -40 -143 -44 -235 -44 -119 1 -203 25 -295 86
-275 184 -319 528 -97 766 72 77 138 122 222 151 81 29 97 31 195 27 64 -2
107 -11 174 -35z m1246 15 c7 -4 25 -35 41 -69 39 -82 41 -165 4 -201 -40 -40
-67 -33 -138 39 -73 74 -104 86 -218 86 -114 0 -138 -31 -139 -172 0 -65 12
-78 73 -78 44 0 73 24 89 74 16 49 38 63 75 51 50 -18 68 -72 68 -205 0 -126
-18 -197 -58 -225 -47 -33 -81 -11 -91 59 -9 56 -42 86 -96 86 -57 0 -63 -14
-59 -138 5 -121 21 -162 63 -162 50 0 87 -50 70 -95 -16 -40 -138 -65 -322
-65 -139 0 -219 13 -249 41 -41 40 -25 97 33 119 13 5 31 21 41 37 16 25 18
55 18 323 0 162 -3 307 -8 322 -4 17 -22 36 -47 50 -45 25 -58 55 -40 88 23
43 45 45 473 43 223 0 411 -4 417 -8z m-864 -186 c18 -20 19 -40 19 -288 0
-146 -3 -278 -8 -293 -7 -27 -62 -66 -75 -54 -3 4 -5 30 -3 60 2 56 -15 112
-42 134 -8 7 -31 16 -51 19 -30 5 -47 -1 -103 -35 -38 -23 -90 -46 -116 -53
-143 -35 -278 78 -308 257 -19 114 18 195 97 210 62 11 119 -28 190 -130 38
-56 73 -96 95 -107 78 -42 194 -9 236 66 19 34 23 55 23 138 0 104 8 118 46
76z m598 -17 c3 -5 -8 -16 -24 -25 -17 -11 -35 -35 -45 -61 -19 -49 -37 -62
-55 -40 -16 18 -4 98 16 119 16 16 99 21 108 7z"/>
</g>
</svg>
